<?xml version="1.0" encoding="utf-8"?>
<!-- Generator: Adobe Illustrator 19.2.0, SVG Export Plug-In . SVG Version: 6.00 Build 0)  -->
<svg version="1.1" id="_x34_753b534-43ce-4352-aa17-3e648546642e"
	 xmlns="http://www.w3.org/2000/svg" xmlns:xlink="http://www.w3.org/1999/xlink" x="0px" y="0px" viewBox="0 0 100 100"
	 style="enable-background:new 0 0 100 100;" xml:space="preserve">
<style type="text/css">
	.st0{fill:#79BE4B;}
</style>
<title>noun_hay_955819</title>
<path class="st0" d="M71.2,55c0.7-0.8,1.4-1.6,2.2-2.2c1.5-1.4,3.3-2.5,5.1-3.4c1.9-0.9,4-1.4,6.2-1.4c2.2,0,4.4,0.4,6.5,1.2
	c-1.9-1.4-4-2.3-6.3-2.7c-2.4-0.5-4.8-0.5-7.2-0.2c-2.4,0.5-4.8,1.4-7,2.6c-0.3,0.2-0.5,0.3-0.8,0.5V25.7c0.4-0.7,0.9-1.3,1.5-1.9
	c0.7-0.8,1.4-1.6,2.2-2.2c1.5-1.4,3.3-2.6,5.1-3.5c1.9-0.9,4-1.4,6.2-1.4c2.2,0,4.4,0.4,6.5,1.2c-1.9-1.4-4-2.3-6.3-2.7
	c-2.4-0.5-4.8-0.5-7.2-0.2c-2.4,0.5-4.8,1.4-7,2.6c-0.3,0.2-0.5,0.3-0.8,0.5v-5.1c0-1.7-1.4-3.1-3.1-3.1c-1.7,0-3.1,1.4-3.1,3.1
	c0,0,0,0,0,0v20.5c-0.4-0.3-0.8-0.5-1.2-0.7c-2.2-1.2-4.6-2.1-7-2.6c-2.4-0.5-4.8-0.4-7.2,0.2c-2.3,0.5-4.4,1.5-6.3,2.7
	c2.1-0.8,4.3-1.2,6.5-1.2c2.1,0,4.2,0.5,6.2,1.4c1.9,0.9,3.6,2,5.1,3.4c0.8,0.7,1.5,1.4,2.2,2.2c0.7,0.7,1.3,1.5,1.7,2.4l0,0v24.8
	c-0.4-0.3-0.8-0.5-1.2-0.7c-2.2-1.2-4.6-2.1-7-2.6c-2.4-0.5-4.8-0.4-7.2,0.2c-2.3,0.5-4.4,1.5-6.3,2.7c2.1-0.8,4.3-1.2,6.5-1.2
	c2.1,0,4.2,0.5,6.2,1.4c1.9,0.9,3.6,2,5.1,3.4c0.8,0.7,1.5,1.4,2.2,2.2c0.7,0.7,1.3,1.5,1.7,2.4l0,0v10.4H37V56.8
	c0.4-0.7,0.9-1.3,1.5-1.9c0.7-0.8,1.4-1.6,2.2-2.2c1.5-1.4,3.3-2.5,5.1-3.4c1.9-0.9,4-1.4,6.2-1.4c2.2,0,4.4,0.4,6.5,1.2
	c-1.9-1.4-4-2.3-6.3-2.7c-2.4-0.5-4.8-0.5-7.2-0.2c-2.4,0.5-4.8,1.4-7,2.6c-0.3,0.2-0.5,0.3-0.8,0.5V24.9c0.3-0.4,0.6-0.8,0.8-1.2
	c0.6-0.8,1.4-1.6,2.2-2.2c1.5-1.4,3.3-2.5,5.1-3.4c1.9-0.9,4-1.4,6.2-1.4c2.2,0,4.4,0.4,6.5,1.2c-1.9-1.4-4-2.3-6.3-2.7
	c-2.4-0.5-4.8-0.5-7.2-0.2c-2.4,0.5-4.8,1.4-7,2.6c-0.2,0-0.2,0.2-0.3,0.2v-4.6c0-1.7-1.4-3.1-3.1-3.1c-1.7,0-3.1,1.4-3.1,3.1v20.5
	c-0.4-0.3-0.8-0.5-1.2-0.7c-2.2-1.2-4.6-2.1-7-2.6c-2.4-0.5-4.8-0.4-7.2,0.2c-2.3,0.5-4.5,1.4-6.4,2.7c2.1-0.8,4.3-1.2,6.5-1.2
	c2.1,0,4.2,0.5,6.2,1.4c1.9,0.9,3.6,2,5.1,3.4c0.8,0.7,1.5,1.4,2.2,2.2c0.7,0.7,1.3,1.5,1.7,2.4l0,0v21.9c-0.4-0.3-0.8-0.5-1.2-0.7
	c-2.2-1.2-4.6-2.1-7-2.6c-2.4-0.5-4.8-0.4-7.2,0.2c-2.3,0.5-4.4,1.4-6.3,2.7c2.1-0.8,4.3-1.2,6.5-1.2c2.1,0,4.3,0.5,6.2,1.4
	c1.9,0.9,3.6,2,5.1,3.4c0.8,0.7,1.5,1.4,2.2,2.2c0.7,0.7,1.3,1.5,1.8,2.4l0,0v13.4H11.9c-1.6,0.1-2.8,1.5-2.7,3.1
	c0.1,1.5,1.3,2.6,2.7,2.7h74.5c1.6,0.1,3-1.1,3.1-2.7c0.1-1.6-1.1-3-2.7-3.1c-0.1,0-0.2,0-0.3,0H69.7V56.8
	C70.2,56.3,70.7,55.5,71.2,55z"/>
</svg>
